<svg width="145" height="54" viewBox="0 0 145 54" fill="none" xmlns="http://www.w3.org/2000/svg">
<path d="M44.064 21V4.368H54.216V6.36H46.392V11.304H53.352V13.248H46.392V19.008H54.816V21H44.064ZM65.3059 21C65.1299 20.648 64.9139 20.256 64.6579 19.824C64.4019 19.392 64.1219 18.952 63.8179 18.504C63.5139 18.04 63.2019 17.584 62.8819 17.136C62.5619 16.688 62.2499 16.264 61.9459 15.864C61.6419 16.264 61.3299 16.696 61.0099 17.16C60.6899 17.608 60.3779 18.064 60.0739 18.528C59.7859 18.976 59.5139 19.416 59.2579 19.848C59.0019 20.28 58.7859 20.664 58.6099 21H56.3059C56.8659 19.912 57.5299 18.808 58.2979 17.688C59.0819 16.552 59.8579 15.472 60.6259 14.448L56.4979 8.52H59.0179L61.9939 12.888L64.9939 8.52H67.3699L63.3379 14.304C64.1059 15.344 64.8899 16.448 65.6899 17.616C66.5059 18.768 67.1939 19.896 67.7539 21H65.3059ZM72.1877 8.52H76.9157V10.392H72.1877V16.152C72.1877 16.776 72.2357 17.296 72.3317 17.712C72.4277 18.112 72.5717 18.432 72.7637 18.672C72.9557 18.896 73.1957 19.056 73.4837 19.152C73.7717 19.248 74.1077 19.296 74.4917 19.296C75.1637 19.296 75.6997 19.224 76.0997 19.08C76.5157 18.92 76.8037 18.808 76.9637 18.744L77.3957 20.592C77.1717 20.704 76.7797 20.84 76.2197 21C75.6597 21.176 75.0197 21.264 74.2997 21.264C73.4517 21.264 72.7477 21.16 72.1877 20.952C71.6437 20.728 71.2037 20.4 70.8677 19.968C70.5317 19.536 70.2917 19.008 70.1477 18.384C70.0197 17.744 69.9557 17.008 69.9557 16.176V5.04L72.1877 4.656V8.52ZM78.8256 14.784C78.8256 13.68 78.9856 12.72 79.3056 11.904C79.6256 11.072 80.0496 10.384 80.5776 9.84C81.1056 9.296 81.7136 8.888 82.4016 8.616C83.0896 8.344 83.7936 8.208 84.5136 8.208C86.1936 8.208 87.4816 8.736 88.3776 9.792C89.2736 10.832 89.7216 12.424 89.7216 14.568C89.7216 14.664 89.7216 14.792 89.7216 14.952C89.7216 15.096 89.7136 15.232 89.6976 15.36H81.1536C81.2496 16.656 81.6256 17.64 82.2816 18.312C82.9376 18.984 83.9616 19.32 85.3536 19.32C86.1376 19.32 86.7936 19.256 87.3216 19.128C87.8656 18.984 88.2736 18.848 88.5456 18.72L88.8576 20.592C88.5856 20.736 88.1056 20.888 87.4176 21.048C86.7456 21.208 85.9776 21.288 85.1136 21.288C84.0256 21.288 83.0816 21.128 82.2816 20.808C81.4976 20.472 80.8496 20.016 80.3376 19.44C79.8256 18.864 79.4416 18.184 79.1856 17.4C78.9456 16.6 78.8256 15.728 78.8256 14.784ZM87.3936 13.56C87.4096 12.552 87.1536 11.728 86.6256 11.088C86.1136 10.432 85.4016 10.104 84.4896 10.104C83.9776 10.104 83.5216 10.208 83.1216 10.416C82.7376 10.608 82.4096 10.864 82.1376 11.184C81.8656 11.504 81.6496 11.872 81.4896 12.288C81.3456 12.704 81.2496 13.128 81.2016 13.56H87.3936ZM92.9278 8.88C93.4398 8.752 94.1198 8.616 94.9678 8.472C95.8158 8.328 96.7918 8.256 97.8958 8.256C98.8878 8.256 99.7118 8.4 100.368 8.688C101.024 8.96 101.544 9.352 101.928 9.864C102.328 10.36 102.608 10.96 102.768 11.664C102.928 12.368 103.008 13.144 103.008 13.992V21H100.776V14.472C100.776 13.704 100.72 13.048 100.608 12.504C100.512 11.96 100.344 11.52 100.104 11.184C99.8638 10.848 99.5438 10.608 99.1438 10.464C98.7438 10.304 98.2478 10.224 97.6558 10.224C97.4158 10.224 97.1678 10.232 96.9118 10.248C96.6558 10.264 96.4078 10.288 96.1678 10.32C95.9438 10.336 95.7358 10.36 95.5438 10.392C95.3678 10.424 95.2398 10.448 95.1598 10.464V21H92.9278V8.88ZM114.773 11.16C114.501 10.936 114.109 10.72 113.597 10.512C113.085 10.304 112.525 10.2 111.917 10.2C111.277 10.2 110.725 10.32 110.261 10.56C109.813 10.784 109.445 11.104 109.157 11.52C108.869 11.92 108.661 12.4 108.533 12.96C108.405 13.52 108.341 14.12 108.341 14.76C108.341 16.216 108.701 17.344 109.421 18.144C110.141 18.928 111.101 19.32 112.301 19.32C112.909 19.32 113.413 19.296 113.813 19.248C114.229 19.184 114.549 19.12 114.773 19.056V11.16ZM114.773 2.76L117.005 2.376V20.64C116.493 20.784 115.837 20.928 115.037 21.072C114.237 21.216 113.317 21.288 112.277 21.288C111.317 21.288 110.453 21.136 109.685 20.832C108.917 20.528 108.261 20.096 107.717 19.536C107.173 18.976 106.749 18.296 106.445 17.496C106.157 16.68 106.013 15.768 106.013 14.76C106.013 13.8 106.133 12.92 106.373 12.12C106.629 11.32 106.997 10.632 107.477 10.056C107.957 9.48 108.541 9.032 109.229 8.712C109.933 8.392 110.733 8.232 111.629 8.232C112.349 8.232 112.981 8.328 113.525 8.52C114.085 8.712 114.501 8.896 114.773 9.072V2.76ZM120.146 14.784C120.146 13.68 120.306 12.72 120.626 11.904C120.946 11.072 121.37 10.384 121.898 9.84C122.426 9.296 123.034 8.888 123.722 8.616C124.41 8.344 125.114 8.208 125.834 8.208C127.514 8.208 128.802 8.736 129.698 9.792C130.594 10.832 131.042 12.424 131.042 14.568C131.042 14.664 131.042 14.792 131.042 14.952C131.042 15.096 131.034 15.232 131.018 15.36H122.474C122.57 16.656 122.946 17.64 123.602 18.312C124.258 18.984 125.282 19.32 126.674 19.32C127.458 19.32 128.114 19.256 128.642 19.128C129.186 18.984 129.594 18.848 129.866 18.72L130.178 20.592C129.906 20.736 129.426 20.888 128.738 21.048C128.066 21.208 127.298 21.288 126.434 21.288C125.346 21.288 124.402 21.128 123.602 20.808C122.818 20.472 122.17 20.016 121.658 19.44C121.146 18.864 120.762 18.184 120.506 17.4C120.266 16.6 120.146 15.728 120.146 14.784ZM128.714 13.56C128.73 12.552 128.474 11.728 127.946 11.088C127.434 10.432 126.722 10.104 125.81 10.104C125.298 10.104 124.842 10.208 124.442 10.416C124.058 10.608 123.73 10.864 123.458 11.184C123.186 11.504 122.97 11.872 122.81 12.288C122.666 12.704 122.57 13.128 122.522 13.56H128.714ZM142.312 11.16C142.04 10.936 141.648 10.72 141.136 10.512C140.624 10.304 140.064 10.2 139.456 10.2C138.816 10.2 138.264 10.32 137.8 10.56C137.352 10.784 136.984 11.104 136.696 11.52C136.408 11.92 136.2 12.4 136.072 12.96C135.944 13.52 135.88 14.12 135.88 14.76C135.88 16.216 136.24 17.344 136.96 18.144C137.68 18.928 138.64 19.32 139.84 19.32C140.448 19.32 140.952 19.296 141.352 19.248C141.768 19.184 142.088 19.12 142.312 19.056V11.16ZM142.312 2.76L144.544 2.376V20.64C144.032 20.784 143.376 20.928 142.576 21.072C141.776 21.216 140.856 21.288 139.816 21.288C138.856 21.288 137.992 21.136 137.224 20.832C136.456 20.528 135.8 20.096 135.256 19.536C134.712 18.976 134.288 18.296 133.984 17.496C133.696 16.68 133.552 15.768 133.552 14.76C133.552 13.8 133.672 12.92 133.912 12.12C134.168 11.32 134.536 10.632 135.016 10.056C135.496 9.48 136.08 9.032 136.768 8.712C137.472 8.392 138.272 8.232 139.168 8.232C139.888 8.232 140.52 8.328 141.064 8.52C141.624 8.712 142.04 8.896 142.312 9.072V2.76Z" fill="#234e52"/>
<path d="M51.528 46.696C51.368 46.312 51.152 45.824 50.88 45.232C50.624 44.64 50.344 44 50.04 43.312C49.736 42.624 49.408 41.92 49.056 41.2C48.72 40.464 48.4 39.776 48.096 39.136C47.792 38.48 47.504 37.896 47.232 37.384C46.976 36.872 46.768 36.48 46.608 36.208C46.432 38.096 46.288 40.144 46.176 42.352C46.064 44.544 45.968 46.76 45.888 49H43.608C43.672 47.56 43.744 46.112 43.824 44.656C43.904 43.184 43.992 41.744 44.088 40.336C44.2 38.912 44.312 37.528 44.424 36.184C44.552 34.84 44.688 33.568 44.832 32.368H46.872C47.304 33.072 47.768 33.904 48.264 34.864C48.76 35.824 49.256 36.832 49.752 37.888C50.248 38.928 50.728 39.976 51.192 41.032C51.656 42.072 52.08 43.024 52.464 43.888C52.848 43.024 53.272 42.072 53.736 41.032C54.2 39.976 54.68 38.928 55.176 37.888C55.672 36.832 56.168 35.824 56.664 34.864C57.16 33.904 57.624 33.072 58.056 32.368H60.096C60.64 37.728 61.048 43.272 61.32 49H59.04C58.96 46.76 58.864 44.544 58.752 42.352C58.64 40.144 58.496 38.096 58.32 36.208C58.16 36.48 57.944 36.872 57.672 37.384C57.416 37.896 57.136 38.48 56.832 39.136C56.528 39.776 56.2 40.464 55.848 41.2C55.512 41.92 55.192 42.624 54.888 43.312C54.584 44 54.296 44.64 54.024 45.232C53.768 45.824 53.56 46.312 53.4 46.696H51.528ZM64.1303 42.784C64.1303 41.68 64.2903 40.72 64.6103 39.904C64.9303 39.072 65.3543 38.384 65.8823 37.84C66.4103 37.296 67.0183 36.888 67.7063 36.616C68.3943 36.344 69.0983 36.208 69.8183 36.208C71.4983 36.208 72.7863 36.736 73.6823 37.792C74.5783 38.832 75.0262 40.424 75.0262 42.568C75.0262 42.664 75.0262 42.792 75.0262 42.952C75.0262 43.096 75.0182 43.232 75.0023 43.36H66.4583C66.5543 44.656 66.9303 45.64 67.5863 46.312C68.2423 46.984 69.2663 47.32 70.6583 47.32C71.4423 47.32 72.0983 47.256 72.6263 47.128C73.1703 46.984 73.5783 46.848 73.8503 46.72L74.1623 48.592C73.8903 48.736 73.4103 48.888 72.7223 49.048C72.0503 49.208 71.2823 49.288 70.4183 49.288C69.3303 49.288 68.3863 49.128 67.5863 48.808C66.8023 48.472 66.1543 48.016 65.6423 47.44C65.1303 46.864 64.7463 46.184 64.4902 45.4C64.2503 44.6 64.1303 43.728 64.1303 42.784ZM72.6983 41.56C72.7143 40.552 72.4583 39.728 71.9303 39.088C71.4183 38.432 70.7063 38.104 69.7943 38.104C69.2823 38.104 68.8263 38.208 68.4263 38.416C68.0423 38.608 67.7143 38.864 67.4423 39.184C67.1703 39.504 66.9543 39.872 66.7943 40.288C66.6503 40.704 66.5543 41.128 66.5063 41.56H72.6983ZM86.2965 39.16C86.0245 38.936 85.6325 38.72 85.1205 38.512C84.6085 38.304 84.0485 38.2 83.4405 38.2C82.8005 38.2 82.2485 38.32 81.7845 38.56C81.3365 38.784 80.9685 39.104 80.6805 39.52C80.3925 39.92 80.1845 40.4 80.0565 40.96C79.9285 41.52 79.8645 42.12 79.8645 42.76C79.8645 44.216 80.2245 45.344 80.9445 46.144C81.6645 46.928 82.6245 47.32 83.8245 47.32C84.4325 47.32 84.9365 47.296 85.3365 47.248C85.7525 47.184 86.0725 47.12 86.2965 47.056V39.16ZM86.2965 30.76L88.5285 30.376V48.64C88.0165 48.784 87.3605 48.928 86.5605 49.072C85.7605 49.216 84.8405 49.288 83.8005 49.288C82.8405 49.288 81.9765 49.136 81.2085 48.832C80.4405 48.528 79.7845 48.096 79.2405 47.536C78.6965 46.976 78.2725 46.296 77.9685 45.496C77.6805 44.68 77.5365 43.768 77.5365 42.76C77.5365 41.8 77.6565 40.92 77.8965 40.12C78.1525 39.32 78.5205 38.632 79.0005 38.056C79.4805 37.48 80.0645 37.032 80.7525 36.712C81.4565 36.392 82.2565 36.232 83.1525 36.232C83.8725 36.232 84.5045 36.328 85.0485 36.52C85.6085 36.712 86.0245 36.896 86.2965 37.072V30.76ZM94.5973 49H92.3653V36.52H94.5973V49ZM93.4693 34.264C93.0693 34.264 92.7253 34.136 92.4373 33.88C92.1653 33.608 92.0293 33.248 92.0293 32.8C92.0293 32.352 92.1653 32 92.4373 31.744C92.7253 31.472 93.0693 31.336 93.4693 31.336C93.8693 31.336 94.2053 31.472 94.4773 31.744C94.7653 32 94.9093 32.352 94.9093 32.8C94.9093 33.248 94.7653 33.608 94.4773 33.88C94.2053 34.136 93.8693 34.264 93.4693 34.264ZM102.66 47.392C103.188 47.392 103.652 47.384 104.052 47.368C104.468 47.336 104.812 47.288 105.084 47.224V43.504C104.924 43.424 104.66 43.36 104.292 43.312C103.94 43.248 103.508 43.216 102.996 43.216C102.66 43.216 102.3 43.24 101.916 43.288C101.548 43.336 101.204 43.44 100.884 43.6C100.58 43.744 100.324 43.952 100.116 44.224C99.9076 44.48 99.8036 44.824 99.8036 45.256C99.8036 46.056 100.06 46.616 100.572 46.936C101.084 47.24 101.78 47.392 102.66 47.392ZM102.468 36.208C103.364 36.208 104.116 36.328 104.724 36.568C105.348 36.792 105.844 37.12 106.212 37.552C106.596 37.968 106.868 38.472 107.028 39.064C107.188 39.64 107.268 40.28 107.268 40.984V48.784C107.076 48.816 106.804 48.864 106.452 48.928C106.116 48.976 105.732 49.024 105.3 49.072C104.868 49.12 104.396 49.16 103.884 49.192C103.388 49.24 102.892 49.264 102.396 49.264C101.692 49.264 101.044 49.192 100.452 49.048C99.8596 48.904 99.3476 48.68 98.9156 48.376C98.4836 48.056 98.1476 47.64 97.9076 47.128C97.6676 46.616 97.5476 46 97.5476 45.28C97.5476 44.592 97.6836 44 97.9556 43.504C98.2436 43.008 98.6276 42.608 99.1076 42.304C99.5876 42 100.148 41.776 100.788 41.632C101.428 41.488 102.1 41.416 102.804 41.416C103.028 41.416 103.26 41.432 103.5 41.464C103.74 41.48 103.964 41.512 104.172 41.56C104.396 41.592 104.588 41.624 104.748 41.656C104.908 41.688 105.02 41.712 105.084 41.728V41.104C105.084 40.736 105.044 40.376 104.964 40.024C104.884 39.656 104.74 39.336 104.532 39.064C104.324 38.776 104.036 38.552 103.668 38.392C103.316 38.216 102.852 38.128 102.276 38.128C101.54 38.128 100.892 38.184 100.332 38.296C99.7876 38.392 99.3796 38.496 99.1076 38.608L98.8436 36.76C99.1316 36.632 99.6116 36.512 100.284 36.4C100.956 36.272 101.684 36.208 102.468 36.208Z" fill="#234e52"/>
<ellipse rx="13.2666" ry="14.1898" transform="matrix(0.956792 -0.290772 0.357996 0.933723 13.7733 14.1069)" fill="#1ECAC0"/>
<path d="M22.9971 27C24.6642 29.8493 26.9983 36.9726 22.9971 42.6712C18.9959 48.3699 27.9985 51.9315 33 53" stroke="#234e52"/>
<path d="M20.3554 25.7281C20.4847 25.0828 21.2593 24.7857 21.8748 25.1453L23.7395 26.2349C24.4693 26.6613 24.4281 27.6584 23.6686 27.9497L21.4123 28.8151C20.6528 29.1064 19.8105 28.4481 19.9638 27.683L20.3554 25.7281Z" fill="#1ECAC0"/>
</svg>
