<svg width="116" height="111" viewBox="0 0 116 111" fill="none" xmlns="http://www.w3.org/2000/svg">
<path d="M58.4615 2.01645L73.0726 37.15C73.5766 38.362 74.7164 39.19 76.0248 39.2949L113.954 42.334C114.397 42.3695 114.577 42.9228 114.239 43.2122L85.3403 67.965C84.3434 68.8189 83.908 70.1587 84.2126 71.4355L93.043 108.447C93.1462 108.88 92.6755 109.222 92.296 108.99L59.8243 89.1546C58.7042 88.4704 57.2954 88.4704 56.1753 89.1546L23.7036 108.99C23.3241 109.222 22.8534 108.88 22.9567 108.447L31.787 71.4355C32.0916 70.1587 31.6562 68.8189 30.6594 67.965L1.76046 43.2121C1.42267 42.9228 1.60243 42.3695 2.04579 42.334L39.9749 39.2949C41.2833 39.19 42.423 38.3619 42.927 37.15L57.5382 2.01644C57.7089 1.60578 58.2907 1.60577 58.4615 2.01645Z" fill="black" stroke="black" stroke-width="3"/>
</svg>
